<svg width="512" height="512" viewBox="0 0 512 512" fill="none" xmlns="http://www.w3.org/2000/svg">
<g opacity="0.5">
<path d="M256 512C397.385 512 512 397.385 512 256C512 114.615 397.385 0 256 0C114.615 0 0 114.615 0 256C0 397.385 114.615 512 256 512Z" fill="url(#paint0_linear_3108_99751)"/>
</g>
<path d="M256.499 504.966C394.902 504.966 507.1 392.768 507.1 254.364C507.1 115.961 394.902 3.76318 256.499 3.76318C118.095 3.76318 5.89746 115.961 5.89746 254.364C5.89746 392.768 118.095 504.966 256.499 504.966Z" fill="#F2F4F8"/>
<path d="M256.733 505.956C305.701 506.035 353.608 491.698 394.482 464.732C385.247 414.265 350.104 411.39 350.104 411.39H156.307C156.307 411.39 123.144 414.111 112.787 460.536C154.927 490.178 205.212 506.044 256.733 505.956V505.956Z" fill="#6C63FF"/>
<path d="M254.071 370.041C320.874 370.041 375.029 315.886 375.029 249.083C375.029 182.279 320.874 128.125 254.071 128.125C187.268 128.125 133.113 182.279 133.113 249.083C133.113 315.886 187.268 370.041 254.071 370.041Z" fill="#333333"/>
<path opacity="0.1" d="M215.033 349.833H292.537V411.837C292.537 422.112 288.456 431.967 281.192 439.234C273.928 446.501 264.075 450.586 253.799 450.589V450.589C243.522 450.589 233.665 446.507 226.398 439.239C219.13 431.972 215.047 422.115 215.047 411.837V349.833H215.033Z" fill="black"/>
<path d="M217.49 346.957H290.109C290.761 346.957 291.386 347.216 291.846 347.677C292.307 348.138 292.566 348.763 292.566 349.414V408.962C292.567 414.053 291.565 419.094 289.617 423.797C287.669 428.501 284.814 432.774 281.213 436.374C277.613 439.973 273.339 442.828 268.635 444.775C263.932 446.722 258.89 447.723 253.799 447.721V447.721C243.522 447.721 233.665 443.638 226.398 436.371C219.13 429.104 215.047 419.247 215.047 408.969V349.414C215.047 348.765 215.304 348.142 215.762 347.682C216.22 347.221 216.841 346.961 217.49 346.957V346.957Z" fill="#FDB797"/>
<path opacity="0.1" d="M215.172 379.1C240.151 388.432 267.646 388.508 292.676 379.313V369.777H215.172V379.1Z" fill="black"/>
<path d="M254.071 384.286C315.425 384.286 365.163 334.548 365.163 273.194C365.163 211.839 315.425 162.102 254.071 162.102C192.716 162.102 142.979 211.839 142.979 273.194C142.979 334.548 192.716 384.286 254.071 384.286Z" fill="#FDB797"/>
<path opacity="0.1" d="M174.938 172.144C174.938 172.144 221.759 267.179 353.83 211.989L323.081 163.774L268.572 144.211L174.938 172.144Z" fill="black"/>
<path d="M174.938 170.75C174.938 170.75 221.759 265.785 353.83 210.58L323.081 162.366L268.572 142.803L174.938 170.75Z" fill="#333333"/>
<path d="M174.528 164.31C177.685 154.537 183.141 145.665 190.438 138.438C212.289 116.836 248.115 112.281 266.49 87.6489C270.891 94.4854 267.487 104.997 259.888 107.931C277.492 107.814 297.892 106.273 307.846 91.7933C310.306 97.5202 311.09 103.828 310.107 109.982C309.124 116.137 306.414 121.887 302.293 126.562C317.895 127.296 334.568 137.859 335.551 153.446C336.226 163.833 329.683 173.662 321.181 179.618C312.68 185.574 302.322 188.31 292.163 190.548C262.499 197.098 155.17 224.51 174.528 164.31Z" fill="#333333"/>
<path d="M142.934 292.471C148.643 292.471 153.27 283.794 153.27 273.091C153.27 262.388 148.643 253.711 142.934 253.711C137.226 253.711 132.599 262.388 132.599 273.091C132.599 283.794 137.226 292.471 142.934 292.471Z" fill="#FDB797"/>
<path d="M365.148 292.471C370.856 292.471 375.484 283.794 375.484 273.091C375.484 262.388 370.856 253.711 365.148 253.711C359.44 253.711 354.813 262.388 354.813 273.091C354.813 283.794 359.44 292.471 365.148 292.471Z" fill="#FDB797"/>
<defs>
<linearGradient id="paint0_linear_3108_99751" x1="256" y1="512" x2="256" y2="0" gradientUnits="userSpaceOnUse">
<stop stop-color="#808080" stop-opacity="0.25"/>
<stop offset="0.54" stop-color="#808080" stop-opacity="0.12"/>
<stop offset="1" stop-color="#808080" stop-opacity="0.1"/>
</linearGradient>
</defs>
</svg>
